{"title":"Evidence 2013 BDRiP AC3-5 1 XviD-AXED","uid":8811255,"size":1488496593,"categoryP":"video","categoryS":"movies","magnet":"?xt=urn:btih:4780bb24e3a054ba21559bbb1d3be424ff4966c9&amp;dn=Evidence+2013+BDRiP+AC3-5+1+XviD-AXED&amp;tr=udp%3A%2F%2Ftracker.openbittorrent.com%3A80&amp;tr=udp%3A%2F%2Fopen.demonii.com%3A1337&amp;tr=udp%3A%2F%2Ftracker.coppersurfer.tk%3A6969&amp;tr=udp%3A%2F%2Fexodus.desync.com%3A6969","seeders":1,"leechers":0,"uploader":"HeroMaster","files":-1,"time":1376461931,"description":"( ___ )| /|( ____ ( __ \n| ( ) |(  / )| ( /| (  )\n| (___) |  (_) / | (__ | | ) |\n| ___ | ) _ ( | __) | | | |\n| ( ) | / ( )  | ( | | ) |\n| ) ( |( /  )| (____/| (__/ )\n|/ ||/ |(_______/(______/\n_ _ _ _ _ _ _ _\n/  /  /  /  /  /  /  / \n( p )( r )( e )( s )( e )( n )( t )( s )\n_/ _/ _/ _/ _/ _/ _/ _/\n\nEvidence.2013.BDRiP.AC3-5.1.XviD-AXED\n\nIMDB: http://www.imdb.com/title/tt1828970/\n\nPLOT INFO:\nA detective hunts down a killer using video footage shot by the victims of a massacre at an abandoned gas station\n\nMedia Info:\nGeneral\nComplete name: Evidence.2013.BDRiP.AC3-5.1.XviD-AXED.avi\nFormat: AVI\nFormat/Info: Audio Video Interleave\nFile size: 1.37 GiB\nDuration: 1h 33mn\nOverall bit rate: 2 085 Kbps\n\nVideo\nID: 0\nFormat: MPEG-4 Visual\nFormat profile: Advanced Simple@L5\nFormat settings, BVOP: 1\nFormat settings, QPel: No\nFormat settings, GMC: No warppoints\nFormat settings, Matrix: Default (H.263)\nCodec ID: XVID\nCodec ID/Hint: XviD\nDuration: 1h 33mn\nBit rate: 1 629 Kbps\nWidth: 720 pixels\nHeight: 304 pixels\nDisplay aspect ratio: 2.35:1\nFrame rate: 23.976 fps\nColor space: YUV\nChroma subsampling: 4:2:0\nBit depth: 8 bits\nScan type: Progressive\nCompression mode: Lossy\nBits/(Pixel*Frame): 0.310\nStream size: 1.07 GiB (78%)\nWriting library: XviD 1.2.1 (UTC 2008-12-04)\n\nAudio\nID: 1\nFormat: AC-3\nFormat/Info: Audio Coding 3\nMode extension: CM (complete main)\nCodec ID: 2000\nDuration: 1h 33mn\nBit rate mode: Constant\nBit rate: 448 Kbps\nChannel(s): 2 channels\nChannel positions: Front: L R\nSampling rate: 48.0 KHz\nBit depth: 16 bits\nCompression mode: Lossy\nStream size: 301 MiB (21%)\nAlignment: Aligned on interleaves\nInterleave, duration: 64 ms (1.54 video frames)\nInterleave, preload duration: 192 ms\nTitle: 00001.dga PID 1100 C+L+R+SL+SR 48 1536 DELAY 0ms\n\nSOURCE:\nRetail RA Blu Ray DISC\n\nNOTES:\nStraight rip from the retail disc. 720p coming soon, if nobody else already has disc in hand. Hopefully Moyer is less of a douchesucker than he is in True Blood\n\nAXED! Still kicking ass but we stopped taking names\n\n\nPoster:\n\n &lt;a href=&quot;\nhttp://i.imgur.com/EA7wTJT.jpg&quot; rel=&quot;nofollow&quot; target=&quot;_NEW&quot;&gt;\nhttp://i.imgur.com/EA7wTJT.jpg&lt;/a&gt;\n\n\nScreenshots:\n\n &lt;a href=&quot;\nhttp://i.imgur.com/8RQVSYc.png&quot; rel=&quot;nofollow&quot; target=&quot;_NEW&quot;&gt;\nhttp://i.imgur.com/8RQVSYc.png&lt;/a&gt;\n\n &lt;a href=&quot;\nhttp://i.imgur.com/QUDCJuQ.png&quot; rel=&quot;nofollow&quot; target=&quot;_NEW&quot;&gt;\nhttp://i.imgur.com/QUDCJuQ.png&lt;/a&gt;\n\n &lt;a href=&quot;\nhttp://i.imgur.com/nmiQXHr.png&quot; rel=&quot;nofollow&quot; target=&quot;_NEW&quot;&gt;\nhttp://i.imgur.com/nmiQXHr.png&lt;/a&gt;\n\n\nSEED AND ENJOY!","torrent":{"xt":"urn:btih:4780bb24e3a054ba21559bbb1d3be424ff4966c9","amp;dn":"Evidence+2013+BDRiP+AC3-5+1+XviD-AXED","amp;tr":["udp%3A%2F%2Ftracker.openbittorrent.com%3A80","udp%3A%2F%2Fopen.demonii.com%3A1337","udp%3A%2F%2Ftracker.coppersurfer.tk%3A6969","udp%3A%2F%2Fexodus.desync.com%3A6969"],"infoHash":"4780bb24e3a054ba21559bbb1d3be424ff4966c9","infoHashBuffer":{"type":"Buffer","data":[71,128,187,36,227,160,84,186,33,85,155,187,29,59,228,36,255,73,102,201]},"announce":[],"urlList":[]}}